<svg xmlns="http://www.w3.org/2000/svg" fill="white" stroke="white" width="20px" height="20px" version="1.1" viewBox="0 0 50 50">
      <g fillRule="evenodd" strokeWidth="2">
        <path d="M 18.875 2.535156 C 1.242188 7.273438 -4.214844 30.21875 9.359375 42.53125 C 11.839844 44.78125 16.78125 47.441406 19.328125 47.902344 L 20.769531 48.164062 L 20.769531 31.921875 L 15.382812 31.921875 L 15.382812 25 L 20.667969 25 L 20.855469 21.25 C 21.246094 13.488281 24.199219 10.539062 31.449219 10.667969 C 35.929688 10.75 35.769531 10.617188 35.769531 14.253906 L 35.769531 17.308594 L 33.503906 17.308594 C 30.070312 17.308594 29.46875 17.960938 29.289062 21.886719 L 29.148438 25 L 32.484375 25 C 35.480469 25 35.800781 25.070312 35.625 25.671875 C 35.515625 26.042969 35.308594 27.210938 35.160156 28.269531 C 34.667969 31.832031 34.582031 31.921875 31.742188 31.921875 L 29.230469 31.921875 L 29.230469 40 C 29.230469 49.316406 28.921875 48.765625 33.238281 47.140625 C 54.488281 39.140625 53.039062 8.320312 31.136719 2.492188 C 28.433594 1.769531 21.621094 1.796875 18.875 2.535156 "/>
      </g>
    </svg>